<?xml version="1.0" standalone="no"?>
<!DOCTYPE svg PUBLIC "-//W3C//DTD SVG 20010904//EN"
 "http://www.w3.org/TR/2001/REC-SVG-20010904/DTD/svg10.dtd">
<svg version="1.0" xmlns="http://www.w3.org/2000/svg"
 width="262.000000pt" height="262.000000pt" viewBox="0 0 262.000000 262.000000"
 preserveAspectRatio="xMidYMid meet">
<metadata>
Created by potrace 1.14, written by Peter Selinger 2001-2017
</metadata>
<g transform="translate(0.000000,262.000000) scale(0.100000,-0.100000)"
fill="#000000" stroke="none">
<path d="M583 2563 c9 -2 25 -2 35 0 9 3 1 5 -18 5 -19 0 -27 -2 -17 -5z"/>
<path d="M482 2539 c-48 -24 -98 -79 -107 -118 -4 -18 -43 -53 -131 -119 -99
-74 -124 -97 -124 -116 0 -16 7 -27 20 -31 11 -3 20 -12 20 -20 0 -12 54 -38
62 -30 1 2 57 9 122 15 l120 12 68 -28 68 -27 0 -118 c0 -104 -3 -123 -25
-171 -14 -29 -25 -64 -24 -78 0 -16 5 -8 13 23 7 27 23 61 34 76 19 26 20 39
17 142 l-5 114 26 -119 26 -119 -28 -61 c-25 -56 -28 -73 -31 -206 -3 -88 -10
-169 -20 -207 -32 -125 -3 -270 73 -370 31 -41 27 -41 -24 0 -58 47 -92 90
-118 155 -13 31 -24 50 -24 42 0 -30 50 -120 91 -165 63 -68 128 -112 283
-191 l139 -70 17 -55 c22 -70 51 -127 84 -162 23 -25 26 -36 26 -103 0 -40 -3
-74 -8 -74 -4 0 -38 8 -75 19 -46 13 -73 26 -88 45 -30 38 -74 35 -121 -9 -28
-26 -38 -43 -38 -67 0 -29 1 -30 18 -15 10 10 21 17 25 17 7 0 -1 -63 -14
-106 -7 -22 -6 -40 2 -58 15 -32 26 -33 32 -4 4 19 5 18 6 -6 1 -24 4 -27 24
-23 18 5 25 -1 40 -36 14 -33 20 -39 27 -27 5 8 10 11 10 5 1 -34 18 -34 53
-1 38 35 120 86 171 105 27 11 28 10 22 -13 -8 -31 12 -89 29 -82 8 2 16 -2
19 -11 5 -12 9 -13 21 -3 9 7 17 11 18 9 1 -2 11 -22 21 -43 12 -27 20 -36 25
-27 6 9 10 6 14 -10 6 -22 6 -22 37 8 43 42 189 123 221 123 46 0 54 21 59
172 l5 140 101 37 c159 59 208 93 229 161 10 35 34 59 80 82 22 11 65 46 95
78 45 46 68 61 120 79 120 40 183 88 149 114 -9 7 -14 17 -12 23 5 14 -50 49
-89 59 -19 5 -28 14 -28 26 0 11 -7 22 -15 26 -9 3 -15 15 -13 26 3 18 -5 23
-52 32 -52 11 -155 42 -173 52 -5 3 1 14 12 25 22 20 20 38 -4 38 -8 0 -11 7
-8 20 4 17 1 20 -23 19 -29 -1 -29 -1 -4 -9 24 -7 24 -8 -15 -26 -31 -15 -62
-19 -140 -19 -96 1 -103 2 -175 39 -41 21 -106 60 -145 86 -164 111 -221 130
-379 130 -104 0 -220 -25 -301 -65 -27 -13 -50 -23 -51 -22 -1 1 29 41 67 90
45 57 76 87 89 87 24 0 24 -6 5 230 -32 398 -54 472 -176 590 -44 43 -131 90
-163 89 -12 0 -2 -6 21 -13 56 -18 100 -47 148 -97 42 -44 37 -43 -32 3 -96
65 -216 77 -313 32 -30 -14 -65 -35 -77 -46 -28 -27 -29 -16 -3 27 24 39 59
64 115 81 22 7 31 13 20 13 -11 1 -39 -9 -63 -20z m98 -104 c13 -16 7 -45 -10
-45 -6 0 -9 4 -6 9 11 18 -6 41 -30 41 -16 0 -27 -8 -33 -22 -5 -13 -10 -17
-14 -11 -20 33 68 59 93 28z m1277 -1232 c-2 -16 -4 -5 -4 22 0 28 2 40 4 28
2 -13 2 -35 0 -50z m0 -125 c-2 -13 -4 -3 -4 22 0 25 2 35 4 23 2 -13 2 -33 0
-45z m13 -133 c0 -44 -4 -75 -10 -75 -6 0 -10 30 -9 75 1 41 5 75 10 75 5 0 9
-34 9 -75z m-3 -167 c-3 -7 -5 -2 -5 12 0 14 2 19 5 13 2 -7 2 -19 0 -25z
m-392 -300 l45 -22 0 -79 c0 -59 -3 -78 -12 -74 -7 2 -39 10 -71 17 -42 10
-65 21 -82 42 -13 15 -33 28 -45 28 -17 0 -21 5 -18 27 2 20 15 33 53 54 61
34 72 35 130 7z"/>
<path d="M542 1563 c-2 -105 -5 -128 -27 -175 -14 -29 -25 -62 -24 -73 0 -11
6 -2 13 20 7 22 20 55 30 73 14 26 16 55 13 155 l-3 122 -2 -122z"/>
<path d="M1088 1663 c29 -2 74 -2 100 0 26 2 2 3 -53 3 -55 0 -76 -1 -47 -3z"/>
<path d="M1273 1653 c9 -2 25 -2 35 0 9 3 1 5 -18 5 -19 0 -27 -2 -17 -5z"/>
<path d="M1395 1630 c134 -35 230 -82 323 -157 39 -32 159 -89 168 -80 3 2
-21 14 -52 26 -31 12 -83 41 -115 65 -33 25 -83 58 -112 75 -60 34 -223 91
-258 90 -13 0 8 -8 46 -19z"/>
<path d="M1938 1373 c7 -3 16 -2 19 1 4 3 -2 6 -13 5 -11 0 -14 -3 -6 -6z"/>
<path d="M1983 1363 c9 -2 23 -2 30 0 6 3 -1 5 -18 5 -16 0 -22 -2 -12 -5z"/>
<path d="M483 1245 c0 -27 2 -38 4 -22 2 15 2 37 0 50 -2 12 -4 0 -4 -28z"/>
</g>
</svg>
